<?xml version="1.0" encoding="utf-8"?><!DOCTYPE svg PUBLIC "-//W3C//DTD SVG 1.1//EN" "http://www.w3.org/Graphics/SVG/1.1/DTD/svg11.dtd"><svg version="1.1" xmlns="http://www.w3.org/2000/svg" xmlns:xlink="http://www.w3.org/1999/xlink" x="0px" y="0px" viewBox="0 0 82.056 125" enable-background="new 0 0 82.056 100" xml:space="preserve"><g><path fill="#f6c417" d="M18.513,43.161c0,6.004-4.803,10.907-10.908,10.907v42.83c0,1.7,1.401,3.102,3.103,3.102h68.246
		c1.701,0,3.103-1.401,3.103-3.102V43.161H18.513z M30.521,56.971H18.012l6.205-10.007h12.708L30.521,56.971z M51.334,56.971H38.426
		l6.204-10.007h12.709L51.334,56.971z M71.848,56.971H58.94l6.204-10.007h12.709L71.848,56.971z"/><path fill="#239EC6" d="M15.51,43.161c0-4.203-3.402-7.705-7.705-7.705C3.502,35.456,0,38.858,0,43.161
		c0,4.203,3.402,7.706,7.705,7.706S15.51,47.364,15.51,43.161z"/><path fill="#f6c417"  d="M3.703,33.054c5.504-2.102,11.808,0.3,14.209,6.004l58.94-23.816L71.449,1.933
		c-0.9-2.001-2.902-2.202-4.104-1.701L4.103,25.649c-1.901,0.8-2.302,2.702-1.801,4.103L3.703,33.054z M61.943,6.336l9.405,6.905
		L59.64,17.944l-9.406-6.904L61.943,6.336z M42.829,14.042l9.507,6.904l-11.808,4.704l-9.506-6.905L42.829,14.042z M23.816,21.747
		l9.506,6.905l-11.808,4.703l-9.506-6.905L23.816,21.747z"/></g></svg>