<svg xmlns="http://www.w3.org/2000/svg" xmlns:xlink="http://www.w3.org/1999/xlink" version="1.1" x="0px" y="0px" viewBox="0 0 100 125" fill="#578998" enable-background="new 0 0 100 100" xml:space="preserve"><path d="M89.128,36.882h-5.796h-0.704H17.372h-0.704h-5.796c-0.792,0-1.434,0.642-1.434,1.434v13.13  c0,0.792,0.642,1.434,1.434,1.434h2.235v1.799c0,4.66,3.076,8.438,6.87,8.438h23.067c1.015,0,1.932-0.718,2.36-1.849  c1.038-2.744,3.08-7.572,4.597-7.572s3.559,4.829,4.597,7.572c0.428,1.131,1.345,1.849,2.36,1.849h23.067  c3.794,0,6.87-3.778,6.87-8.438v-1.799h2.235c0.792,0,1.434-0.642,1.434-1.434v-13.13C90.562,37.524,89.92,36.882,89.128,36.882z   M43.458,43.801v11.856c0,1.571-1.273,2.844-2.844,2.844H19.858c-1.571,0-2.844-1.273-2.844-2.844V43.801  c0-1.571,1.273-2.844,2.844-2.844h20.756C42.185,40.957,43.458,42.23,43.458,43.801z M80.142,58.501H59.386  c-1.571,0-2.844-1.273-2.844-2.844V43.801c0-1.571,1.273-2.844,2.844-2.844h20.756c1.571,0,2.844,1.273,2.844,2.844v11.856  C82.986,57.227,81.713,58.501,80.142,58.501z"/></svg>