<svg xmlns="http://www.w3.org/2000/svg" xmlns:xlink="http://www.w3.org/1999/xlink" version="1.1" x="0px" y="0px" viewBox="0 0 100 125" fill="#f6c417" enable-background="new 0 0 100 100" xml:space="preserve"><g><circle fill="#239EC6" cx="70.138" cy="13.947" r="8.65"/><path d="M44.829,34.113l10.407-0.229c0,0,1.583-6.177,1.793-6.467c0.211-0.29-5.326,0.66-5.326,0.66l5.688-7.939   c0.636-0.452,1.055-1.19,1.055-2.029c0-0.832-0.409-1.567-1.035-2.02l-0.012,2.395l-1.792,0.69l-0.501,0.071l-3.126-0.112   l-8.595,10.471c-0.628,0.452-1.042,1.185-1.042,2.02C42.341,32.998,43.455,34.113,44.829,34.113z"/><polygon fill="#FE4A49" points="34.204,55.99 36.677,55.99 37.466,36.209 34.204,36.209  "/><polygon points="33.513,55.99 33.513,36.209 30.179,36.209 30.968,55.99  "/><polygon  fill="#FE4A49" points="26.096,36.209 27.583,55.99 30.277,55.99 29.488,36.209  "/><path d="M39.973,48.865c4.417-0.074,14.028-0.238,15.099-0.285c1.039-0.651,9.617-8.594,13.821-12.998l0.053-0.054l0.066-0.036   c1.225-0.675,1.987-1.947,1.987-3.319c0-2.1-1.714-3.808-3.817-3.808c-1.085,0-2.128,0.479-2.861,1.315l-0.163,0.186l-0.019-0.002   L53.377,42.127l-12.944,1.982l0.765-7.9h-3.04L37.367,55.99h1.916L39.973,48.865z"/><path d="M57.526,68.032c0.038,0.001,0.073,0.006,0.11,0.006c0.023,0,0.044-0.003,0.067-0.003c0.138,0.002,0.213,0.003,0.213,0.003   v-0.014c3.858-0.148,6.943-3.314,6.943-7.21c0-3.989-3.234-7.223-7.224-7.223c-0.083,0-0.163,0.01-0.245,0.013   c0,0-23.444,4.878-25.283,5.585c-2.756,1.059-3.551,3.497-4.133,5.669c-0.583,2.172-6.678,24.213-6.678,24.213l0.046,0.017   c-0.08,0.331-0.133,0.671-0.133,1.026c0,2.438,1.978,4.415,4.416,4.415c2.201,0,4.011-1.615,4.346-3.723   c1.373-4.502,6.633-21.647,7.277-22.292C37.931,67.834,54.768,68.001,57.526,68.032z"/><path d="M52.342,53.794c0.04-0.014,0.137-0.041,0.274-0.077c1.335-0.777,2.887-1.225,4.543-1.225c3.665,0,6.819,2.182,8.239,5.315   c0.711-0.175,2.14-4.551,2.365-4.937c0.217-0.375,4.115-15.403,5.361-20.724c0.15-0.398,0.262-0.815,0.323-1.25   c0.529-3.719-2.604-7.241-7.002-7.866c-4.235-0.604-8.092,1.703-8.842,5.199l-0.015,0.003c0,0-1.187,5.005-2.428,10.368   l8.563-9.757l0.025,0.002c0.909-0.933,2.145-1.463,3.431-1.463c2.648,0,4.801,2.15,4.801,4.792c0,1.706-0.929,3.286-2.429,4.143   c-2.234,2.337-5.765,5.721-8.336,8.123c-5.434,5.072-5.779,5.101-5.986,5.118c-0.156,0.013-1.138,0.038-2.543,0.066   c-0.173,0.839-0.285,1.436-0.312,1.689C52.271,52.34,52.023,53.9,52.342,53.794z"/><polygon points="75.03,69.073 45.039,69.073 45.039,74.019 45.04,74.019 45.04,94.703 48.655,94.703 48.655,74.019 75.03,74.019    75.03,94.703 78.221,94.703 78.221,30.892 75.03,30.892  "/><path d="M35.557,28.527c0,0-1.038,0.346-0.403,1.5c0.635,1.154,1.53,0.051,1.414,0.514c-0.117,0.461,0.203,0.699,0.78,0.814   c0.577,0.116,0.572-0.63,0.572-0.63s0.351-0.004,0.697-0.12c0.333-0.11,0.488-0.804,0.091-1.677   c0.178,0.148,0.61-1.168,0.195-1.738C38.441,26.555,37,26.969,37,26.969l-0.278,0.468c0,0-0.006-0.448-1.106-0.399   c-0.708,0.03-0.738,0.676-0.615,1.014C35.138,28.431,35.557,28.527,35.557,28.527z"/><path d="M37.447,32.277l0.134,0.532c0,0-0.321-0.315-1.072,0.503c-0.482,0.524-0.043,1.007,0.285,1.161   c0.368,0.171,0.735-0.06,0.735-0.06s-0.492,0.987,0.781,1.357c1.275,0.37,1.126-1.053,1.373-0.642   c0.246,0.411,0.641,0.354,1.135,0.024c0.493-0.33-0.042-0.855-0.042-0.855s0.246-0.254,0.412-0.583   c0.159-0.316-0.232-0.921-1.14-1.259c0.261,0.014-0.377-1.263-1.087-1.376C38.18,30.957,37.447,32.277,37.447,32.277z"/><path d="M29.727,29.783c0.386,0.179,0.771-0.062,0.771-0.062s-0.516,1.035,0.819,1.422c1.336,0.389,1.181-1.103,1.439-0.672   c0.258,0.431,0.673,0.371,1.19,0.026c0.517-0.345-0.043-0.898-0.043-0.898s0.258-0.266,0.432-0.61   c0.166-0.331-0.236-0.965-1.186-1.32c0.247-0.019-0.416-1.327-1.15-1.443c-0.819-0.129-1.587,1.254-1.587,1.254l0.141,0.558   c0,0-0.337-0.33-1.125,0.528C28.924,29.116,29.382,29.621,29.727,29.783z"/><path d="M33.691,31.431c0,0-0.322-0.138-0.687-0.174c-0.35-0.035-0.774,0.537-0.767,1.497c-0.101-0.21-1.034,0.818-0.888,1.509   c0.163,0.768,1.648,0.979,1.648,0.979l0.446-0.314c0,0-0.177,0.411,0.848,0.817c0.659,0.26,0.95-0.317,0.976-0.677   c0,0,0.309-0.224,0.476-0.447c0.168-0.223,0.224-0.782,0.19-1.422c-0.07-1.316-1.377-0.67-1.083-1.045   c0.294-0.375,0.1-0.722-0.38-1.062C33.991,30.749,33.691,31.431,33.691,31.431z"/><path d="M26.587,34.125c0.371,0.172,0.742-0.06,0.742-0.06s-0.497,0.996,0.789,1.369c1.285,0.374,1.135-1.063,1.384-0.648   c0.248,0.416,0.648,0.357,1.145,0.025c0.497-0.333-0.042-0.864-0.042-0.864s0.248-0.256,0.415-0.587   c0.161-0.318-0.233-0.929-1.149-1.271c0.263,0.014-0.382-1.275-1.098-1.388c-0.788-0.125-1.328,1.058-1.328,1.058l-0.063,0.687   c0,0-0.325-0.318-1.081,0.508C25.814,33.483,26.255,33.969,26.587,34.125z"/><polygon points="54.85,11.09 43.583,11.375 43.524,17.976 54.782,18.468  "/><polygon points="56.788,11.497 55.626,11.098 55.556,18.477 56.727,18.098  "/><rect x="57.194" y="14.235" transform="matrix(1 0.0095 -0.0095 1 0.1412 -0.5618)" width="3.479" height="0.556"/></g></svg>